<svg width="42" height="22" viewBox="0 0 42 22" fill="none" xmlns="http://www.w3.org/2000/svg">
<path d="M27.5625 1.8125H16.5703C16.4801 1.8125 16.4062 1.88633 16.4062 1.97656V3.125C16.4062 3.21523 16.4801 3.28906 16.5703 3.28906H26.7422V17.3984C26.7422 17.4887 26.816 17.5625 26.9062 17.5625H28.0547C28.1449 17.5625 28.2188 17.4887 28.2188 17.3984V2.46875C28.2188 2.10576 27.9255 1.8125 27.5625 1.8125ZM24.9375 4.4375H14.4375C14.0745 4.4375 13.7812 4.73076 13.7812 5.09375V15.9772C13.7812 16.1516 13.851 16.3177 13.974 16.4407L17.528 19.9947C17.5731 20.0398 17.6244 20.0768 17.6798 20.1075V20.1465H17.7659C17.8377 20.1731 17.9136 20.1875 17.9915 20.1875H24.9375C25.3005 20.1875 25.5938 19.8942 25.5938 19.5312V5.09375C25.5938 4.73076 25.3005 4.4375 24.9375 4.4375ZM17.6777 18.0588L15.912 16.291H17.6777V18.0588ZM24.1172 18.7109H18.9902V15.7988C18.9902 15.3456 18.6231 14.9785 18.1699 14.9785H15.2578V5.91406H24.1172V18.7109Z" fill="#1A1A1A"/>
</svg>
