<svg width="45" height="22" viewBox="0 0 45 22" fill="none" xmlns="http://www.w3.org/2000/svg">
<path d="M11.2031 0.734375H19.875V6.64062H18.25C15.4271 6.64062 13.5 6.19792 12.4688 5.3125C11.625 4.58333 11.2031 3.40625 11.2031 1.78125V0.734375ZM0.09375 0.734375H8.5V9.29688H14.7656V13.375H8.5V21.9688H0.09375V0.734375ZM34.4531 0.734375H35.6094C38.7031 0.734375 41.0156 1.47917 42.5469 2.96875C43.9531 4.33333 44.6562 6.26562 44.6562 8.76562C44.6562 10.9844 43.9271 12.7708 42.4688 14.125C40.9167 15.5625 38.776 16.2812 36.0469 16.2812H34.4531V0.734375ZM23.2344 0.734375H31.6406V21.9688H23.2344V0.734375Z" fill="black"/>
</svg>
