<svg width="49" height="48" viewBox="0 0 49 48" fill="none" xmlns="http://www.w3.org/2000/svg">
<path d="M10.6621 34C11.2409 31.9024 12.0008 29.897 12.9258 28M23.334 15.5889C24.8984 14.4556 26.5693 13.4522 28.334 12.5918" stroke="#1A1A1A" stroke-width="3" stroke-linecap="round" stroke-linejoin="round"/>
<path d="M9.33398 44C6.57256 44 4.33398 41.7614 4.33398 39C4.33398 36.2386 6.57256 34 9.33398 34C12.0954 34 14.334 36.2386 14.334 39C14.334 41.7614 12.0954 44 9.33398 44Z" stroke="#1A1A1A" stroke-width="3" stroke-linecap="round" stroke-linejoin="round"/>
<path d="M19.334 24C16.5726 24 14.334 21.7614 14.334 19C14.334 16.2386 16.5726 14 19.334 14C22.0954 14 24.334 16.2386 24.334 19C24.334 21.7614 22.0954 24 19.334 24Z" stroke="#1A1A1A" stroke-width="3" stroke-linecap="round" stroke-linejoin="round"/>
<path d="M39.334 14C36.5726 14 34.334 11.7614 34.334 9C34.334 6.23858 36.5726 4 39.334 4C42.0954 4 44.334 6.23858 44.334 9C44.334 11.7614 42.0954 14 39.334 14Z" stroke="#1A1A1A" stroke-width="3" stroke-linecap="round" stroke-linejoin="round"/>
</svg>
