<svg width="48" height="48" viewBox="0 0 48 48" fill="none" xmlns="http://www.w3.org/2000/svg">
<path d="M27.9844 34H33.9844M39.9844 34H33.9844M33.9844 34V28M33.9844 34V40" stroke="#1A1A1A" stroke-width="3" stroke-linecap="round" stroke-linejoin="round"/>
<path d="M8 18.8V9.2C8 8.53726 8.53726 8 9.2 8H18.8C19.4627 8 20 8.53726 20 9.2V18.8C20 19.4627 19.4627 20 18.8 20H9.2C8.53726 20 8 19.4627 8 18.8Z" stroke="#1A1A1A" stroke-width="3"/>
<path d="M8 38.8V29.2C8 28.5373 8.53726 28 9.2 28H18.8C19.4627 28 20 28.5373 20 29.2V38.8C20 39.4627 19.4627 40 18.8 40H9.2C8.53726 40 8 39.4627 8 38.8Z" stroke="#1A1A1A" stroke-width="3"/>
<path d="M28 18.8V9.2C28 8.53726 28.5373 8 29.2 8H38.8C39.4627 8 40 8.53726 40 9.2V18.8C40 19.4627 39.4627 20 38.8 20H29.2C28.5373 20 28 19.4627 28 18.8Z" stroke="#1A1A1A" stroke-width="3"/>
</svg>
