<svg width="220" height="186" viewBox="0 0 220 186" fill="none" xmlns="http://www.w3.org/2000/svg">
<path d="M183.331 93.0021V88.9359C169.334 88.9359 157.991 79.3427 157.991 67.5107V24.66C157.991 12.828 169.338 3.23473 183.331 3.23473V0H146.664V92.9979H183.331V93.0021Z" fill="#1D1D1B"/>
<path d="M110.003 93.0021V88.9359C96.0062 88.9359 84.6628 79.3427 84.6628 67.5107V24.66C84.6628 12.828 96.0104 3.23473 110.003 3.23473V0H73.3359V92.9979H110.003V93.0021Z" fill="#1D1D1B"/>
<path d="M36.6672 88.9398C22.6703 88.9398 11.3269 79.3466 11.3269 67.5146V24.6639C11.3269 12.8319 22.6744 3.23863 36.6672 3.23863V0.00390625H0V93.0018H36.6672V88.9357V88.9398Z" fill="#1D1D1B"/>
<path d="M183.332 96.3603C197.329 96.3603 208.672 105.954 208.672 117.786V160.636C208.672 172.468 197.325 182.061 183.332 182.061V186H219.999V93.0021H183.332V96.3603Z" fill="#1D1D1B"/>
<path d="M110.002 93.0021V96.3603C123.999 96.3603 135.342 105.954 135.342 117.786V160.636C135.342 172.468 123.995 182.061 110.002 182.061V186H146.669V93.0021H110.002Z" fill="#1D1D1B"/>
<path d="M36.666 93.0021V96.3603C50.6629 96.3603 62.0063 105.954 62.0063 117.786V160.636C62.0063 172.468 50.6588 182.061 36.666 182.061V186H73.3332V93.0021H36.666Z" fill="#1D1D1B"/>
<path d="M62.0063 67.5148V24.6642C62.0063 12.8321 50.6588 3.23889 36.666 3.23889V88.9401C50.6629 88.9401 62.0063 79.3469 62.0063 67.5148Z" fill="#1D1D1B"/>
<path d="M11.3242 117.786V160.636C11.3242 172.468 22.6717 182.061 36.6645 182.061V96.3602C22.6676 96.3602 11.3242 105.953 11.3242 117.786Z" fill="#1D1D1B"/>
<path d="M135.342 67.5148V24.6642C135.342 12.8321 123.995 3.23889 110.002 3.23889V88.9401C123.999 88.9401 135.342 79.3469 135.342 67.5148Z" fill="#1D1D1B"/>
<path d="M84.6562 117.786V160.636C84.6562 172.468 96.0038 182.061 109.997 182.061V96.3602C95.9996 96.3602 84.6562 105.953 84.6562 117.786Z" fill="#1D1D1B"/>
<path d="M208.676 67.5148V24.6642C208.676 12.8321 197.329 3.23889 183.336 3.23889V88.9401C197.333 88.9401 208.676 79.3469 208.676 67.5148Z" fill="#1D1D1B"/>
<path d="M157.992 117.786V160.636C157.992 172.468 169.34 182.061 183.332 182.061V96.3602C169.336 96.3602 157.992 105.953 157.992 117.786Z" fill="#1D1D1B"/>
</svg>
